<mxfile host="65bd71144e">
    <diagram id="HIP3nbAZw_EuaXWnEj3U" name="Page-1">
        <mxGraphModel dx="772" dy="428" grid="1" gridSize="10" guides="1" tooltips="1" connect="1" arrows="1" fold="1" page="1" pageScale="1" pageWidth="850" pageHeight="1100" math="0" shadow="0">
            <root>
                <mxCell id="0"/>
                <mxCell id="1" parent="0"/>
                <mxCell id="7" value="http://ics2o.mths.ca" style="swimlane;whiteSpace=wrap;html=1;" parent="1" vertex="1">
                    <mxGeometry x="10" y="60" width="770" height="480" as="geometry"/>
                </mxCell>
                <mxCell id="8" value="Divide Two Numbers, in Js" style="text;strokeColor=none;align=center;fillColor=none;html=1;verticalAlign=middle;whiteSpace=wrap;rounded=0;strokeWidth=0;fontSize=18;" parent="7" vertex="1">
                    <mxGeometry x="250" y="40" width="280" height="30" as="geometry"/>
                </mxCell>
                <mxCell id="10" value="&lt;font&gt;Enter Two Numbers To Divide&lt;/font&gt;" style="text;strokeColor=none;align=center;fillColor=none;html=1;verticalAlign=middle;whiteSpace=wrap;rounded=0;fontSize=13;" parent="7" vertex="1">
                    <mxGeometry x="20" y="70" width="180" height="30" as="geometry"/>
                </mxCell>
                <mxCell id="11" value="Enter first number.." style="rounded=1;whiteSpace=wrap;html=1;" parent="7" vertex="1">
                    <mxGeometry x="20" y="110" width="130" height="30" as="geometry"/>
                </mxCell>
                <mxCell id="12" value="Enter second number.." style="rounded=1;whiteSpace=wrap;html=1;" parent="7" vertex="1">
                    <mxGeometry x="190" y="110" width="130" height="30" as="geometry"/>
                </mxCell>
                <mxCell id="19" value="CALCULATE!" style="rounded=1;whiteSpace=wrap;html=1;" parent="7" vertex="1">
                    <mxGeometry x="20" y="170" width="90" height="40" as="geometry"/>
                </mxCell>
                <mxCell id="20" value="&lt;span style=&quot;color: rgb(31, 31, 31); font-family: &amp;quot;Google Sans&amp;quot;, Arial, sans-serif; font-size: 32px; text-align: start; background-color: rgb(255, 255, 255);&quot;&gt;รท&lt;/span&gt;" style="text;strokeColor=none;align=center;fillColor=none;html=1;verticalAlign=middle;whiteSpace=wrap;rounded=0;" vertex="1" parent="7">
                    <mxGeometry x="160" y="115" width="20" height="20" as="geometry"/>
                </mxCell>
                <mxCell id="21" value="" style="shape=image;imageAspect=0;aspect=fixed;verticalLabelPosition=bottom;verticalAlign=top;image=data:image/png,iVBORw0KGgoAAAANSUhEUgAAAMgAAACgCAMAAAB+IdObAAAAGXRFWHRTb2Z0d2FyZQBBZG9iZSBJbWFnZVJlYWR5ccllPAAAAyBpVFh0WE1MOmNvbS5hZG9iZS54bXAAAAAAADw/eHBhY2tldCBiZWdpbj0i77u/IiBpZD0iVzVNME1wQ2VoaUh6cmVTek5UY3prYzlkIj8+IDx4OnhtcG1ldGEgeG1sbnM6eD0iYWRvYmU6bnM6bWV0YS8iIHg6eG1wdGs9IkFkb2JlIFhNUCBDb3JlIDUuMC1jMDYwIDYxLjEzNDc3NywgMjAxMC8wMi8xMi0xNzozMjowMCAgICAgICAgIj4gPHJkZjpSREYgeG1sbnM6cmRmPSJodHRwOi8vd3d3LnczLm9yZy8xOTk5LzAyLzIyLXJkZi1zeW50YXgtbnMjIj4gPHJkZjpEZXNjcmlwdGlvbiByZGY6YWJvdXQ9IiIgeG1sbnM6eG1wPSJodHRwOi8vbnMuYWRvYmUuY29tL3hhcC8xLjAvIiB4bWxuczp4bXBNTT0iaHR0cDovL25zLmFkb2JlLmNvbS94YXAvMS4wL21tLyIgeG1sbnM6c3RSZWY9Imh0dHA6Ly9ucy5hZG9iZS5jb20veGFwLzEuMC9zVHlwZS9SZXNvdXJjZVJlZiMiIHhtcDpDcmVhdG9yVG9vbD0iQWRvYmUgUGhvdG9zaG9wIENTNSBXaW5kb3dzIiB4bXBNTTpJbnN0YW5jZUlEPSJ4bXAuaWlkOjNBMkY2QkM2MzU2MTExRTlBRUQyRTZENjQ2NkQ5RkVEIiB4bXBNTTpEb2N1bWVudElEPSJ4bXAuZGlkOjNBMkY2QkM3MzU2MTExRTlBRUQyRTZENjQ2NkQ5RkVEIj4gPHhtcE1NOkRlcml2ZWRGcm9tIHN0UmVmOmluc3RhbmNlSUQ9InhtcC5paWQ6M0EyRjZCQzQzNTYxMTFFOUFFRDJFNkQ2NDY2RDlGRUQiIHN0UmVmOmRvY3VtZW50SUQ9InhtcC5kaWQ6M0EyRjZCQzUzNTYxMTFFOUFFRDJFNkQ2NDY2RDlGRUQiLz4gPC9yZGY6RGVzY3JpcHRpb24+IDwvcmRmOlJERj4gPC94OnhtcG1ldGE+IDw/eHBhY2tldCBlbmQ9InIiPz43VSMoAAADAFBMVEWKZHkuMZL8/P7fdK6Kk8PExeD+/v/W2OrQ0uekqtDy8viRksa4udqChL5rcrPi4vCYcYcxNZRSVKWwsdZ6fLq9vdx3Umbod7T29/q2udrIyeJLTaHLzeSss9TBwt8IGoHg4e/6+v0dIYnY2es6PZhOUKNCRZzu7vbNzuWUnMl3ebnCxeBeYKtydLbq6vSpqtLo6POgos6Hf4Otr9WnrtLw8Pe1ttmmX4bP0OYqLZCYmcnGyOGGiMC+wN0WGYU1OJaen8zU2tb7/v2qq6re4O4+QJrs7PXJ0My7vNwiJozZ2+wbHoj4+Pvhcq5GSZ9hba6IisHm5/ITFoSlp9DhdbD4+vmlpaXHzMnS1Oj5+fzBxcOCi7+bnJyytNcbLIu0XIzW1ukBFH2anMt1d7fe3u5gYqzk5PHW1+qdnszndrNqbLFcX6rk5PKNVHNwe7bqeLV/gbwkKI1aXanc3e1hY60oLI9oarAYHIdkZq7Xa6bS0+hlcbD09PknKo5GVKCUlsi7YZKSWXjq7PTEyseio8/e4+Hb3e26v9y1ubeuXYmVkZPJzcuepc3c3+1nabCFU259hrxvcbTLZp3Fa5xteLS2vNpLWKMUJYezudji4/CoYIhsbrKUVHe6XpCVjZLldrKOkMQxQZbt7fXl5fJYWqhWWKfS1tTKy+TFY5jn6PMNIITT1+mKi8LJzeN1gLl5g7tDUZ8fIorV1emMjsOYoMshJIvldLLkc7FWY6mHkMI4O5d9f7slKI2YUXcWKIgVJofkdbEmKY6in6H8/P0kJ435+vzz9Pn19frp6fTp6vSQmMaFh7/v8Pecncu/XZOboszd3u39/f7t7vbj5+Xl6ufl6+itr6+rrNOsrdSCTWrvermUTXTz+faxZY5VTVKAb3mPhYqRh429w8Db2+yMlsXa4Nz19vr29fr4/PmiW4IkNZDjdrHv7/egV3+QWXecUXqfWH88S5vQZ59SX6cNEIA3RZnQcKTXc6mFeIDmdLKkpc9caayhV4CqXIe6u9v///+/jfl5AAALaElEQVR42uyde1gU1xXAHXDXdQHp7oIaFskyuwtEeYQi1OUxq4ZVl0GExVrQkBgQI2yiqIyzahaaxMQ0MVZMEIlNRR4hUTRuzDYJ0ugWVNTYhD4i9mVbrc2Dpg9J62dbJrvY5MvMvcFrWW8/7T3/eeZ8d/jt3HPmnnPPXMcIt4mMISAEhIAQEAJCQL5SZt2z6KXbAOSJKw/f/+LEl255kN9PfHlVxaofP32Lg8y+91zg0cDAhdu/f2uDPHH+XxULAwMDj77sHxD5jdxc7j/Lp7zTKtAnH/tlagWUqkOR/7iWrWGIlr11CdexeP/c/N2B/wHxwxMpcNDca6gc8wz8GjRLmYVXj/xIfj7xBwuvcQTufvHe0YNcdalUayF6xZRHQGUr59yKBlLt4ewjW8z90DevjvpAKu5fNHqQ4mVrKB2o7jv4wE5QOxDOVaKBpMqo+JEtfjax4uOjFc/9wwfynff94ex2qgWi3VcyGaJ9sKsOcJumzPz8zKZEiTrb5LjOfe85t337o795zvtMJv37Kb+AqF6RqsYfeHXJW9sOLNknvbB0NeDCWZRPVDMAkOtOwmd+99tZP/q2F6TihcX+ASmQBrLLexuOHGlouHMJAoggHxbhxkF84k+QeNVJqUoZt79Iodi/Xym9MK6rDAh7Vzd5JSlVotaZKpFBJv3JDyAt6TFURyKoP/VmDqjMCOO0GsmPH+y29vRYPZFibWQVldffjQiy6oePjx6kdNDlHkwB9Rs/koFKrc3KU7GSmVUQ2tgYercEr23QynIFOEFSh4KD50FeGcVKiHFOWnBaHNJ8Xeu1bBdwgvyP5ZqPfG/ubQLy6CwCQkAICAEhILcsSHP2cfQbp85BNAxoaYzGChJbZe6JKUWtjchiHGiGinKOa5NhBCnQ2vLKKfYsmOsWQ6xrrXQ5EseQh25VW1XXK8/8ava9wyCfzP1g9ihBFIb8E8JMWwhwYeWe/aB1XQyHVnyotaQJQjk/4iP55vtXxnxtzN8XBgbu/vWYMecXj3JqTZYLxVuZfkC/7aACYr3BCaZLiQ+1tDwkyWj6cgVB3wktBnwhX//z+vnzjw6XhD5+4431ExeP1tlnqJl1knn0E/2Tz+qz9bo+INXtAlLd8NXWri6rM1I6NZNUdPKI5aCHf/F5XWu4tvW3K6MDiT7k9gTlinXdOxru88nbpxBy9oLkmcnJMwsHxNrGcsYyNOKNF3+46kscgQvXnx8dyGFmDZjTTtm48fmVEzYuyEIpPsBkTh6bqRzZ5KcT10+aVPG5TFr1y0WjAsnpUudCL+imdUPrWgDIEKVSqSizuBx0xhZ03Vs/c/6Tv7zwjc/lu0/PHhVIMJ23zlGeMAO4UAOrNK5Qc4YQiT/pMkNOnw7p6BUpy+jWrY7qjuYR7/3BH771hTz+xCjDr97AeTweFgy/014fAK3XuFTOmFSEYZM577CrrVH+Wccg+Uhitk6ny76ENuLxbF12M4phd6Nv1OV9GEFuBSEgBISAEBACQkBuOog8KywMuu8JlWPpK9AMlZsS8ttxgkQnsDzL74pGG1FXzrQhGa7NY1jeugkjSKqlLSNnHQsm17It74DWbYwHrYqS5azSywyWEzgXjZeO6Sr5cKCIAm0YiCzl1iHduu9u+fEIS2cqTmffpOLc1eDq99moY7DEygM0DGRXTfXKYUmdoW8X1eWpxRq1Znaa3NKWn7s2Tlh54PkJK+MQUt0oc6ehs9OyQeJ7leYuUwne8FusULPiW/b981rxYe9b/23O7stdUijzSXwgx8Z5M9cU22mxNjdH/6T+yXHjgLAMaRjQBfkkXVwTbvY1HO1iI/CBaNj8Pw4kMGAFaklNESQyFDrt70l085wmk4mjxLOwzjnU/VoM9x4+kLWdvFnFqMHSzfOwkqnR5uZV0oaB1Obm5jmS+JREuw1OPh+nj1yYqtWehrRwQIvYJVWnQ5KREvEhR0xbYQBeZ5fLhZshff4blqx+CQgBISAEhIDgAInWoydAvY3IpgP6aLwg8jC6DHXIYHM5qmmj1p2GF6SUtkL+umOwLcB82lWNWm8pp90zsYLInCoOUlHY+FEGqAwzIubsPmYD1iqK0GKhrlKQn3ns5XEQ66Vgw0CfLscr0i35EtYexOIECXDQmlCn9IkURM7YV1QUuS8aIdUdomm3m7aKq3EXzIaTm/irGEGqXJ0hCSZLkyhT7a7Ze+Ttt4807B2LANKs8UmaqFWqV+s2Hmrtau2X4wJJtFi7WJpySrLrzQcObFvy6oGVgJs8CCk+5F7yijgNu6PHY+WtKjZmMrYn0hsREXeWUy8Ffjp9PSxFhDQMBPc4Oc5pEuXs8pyMCMVhOmQOzqjlq7qB4VcOrTQG5XHmMkmnREF6bW1tUCm4a13KJGN+szeuhjRhzZgOaRB0cJ2UVok4bNJgP+61luwComFuYmLiI6ijKoeUuEHI6peAEBACQkAIyP87SHN/klcK9ahjRsiQzJYW+obtfwcfSBRN22y2waloIxY3udEaBqoY3jusLRwfSI5Jq9H0a3qBC68oIH2/W21WtIaBM2xCWsrZ8GJ8IHHueE1mLbjXJ99xZz1onZyAWHw4xHZcPZ2Ec9EY7OF4ljGBDbr1Y2FZ0TjPLmCRm5ai0aSkiRfFU1dbGZ4xxuIDmcmoaotKpTN/2rtbpk8Zv2X6SYScPZilXS7aLc6V7Yy2pKiOScc4tezeMJSrFW/td9fcudcnD6CcMNC9PDQ0VFcgzpVXVHq9LtJdiQ9kWC7lmcX7utnTp5fsnDJ9fCNCzn48rj0ysl0B6VzJcO3CB9IetkwQ0ulW4MLOJbD+i4yuSunudBrDeoUWT63kpslCqoMpxQeyYtBcqaZN4Gvu8l5I1Kp0dvUYJbHoUoTMK5HiSNtq01ZaGKMSH0hAk8FNrYG8rufoIY0B+cY2dQJKraqlknKby1qwrrVS1y73V4fCl99Dd19o9ttgZPVLQAgIASEgBAQHSPcNfGUXgN4EEC3HDHJBXYU85DI7cm+B5jofHfsdRNHJI2/sl5h5O6JpMq0qwgqS3WmCdlpcfBNSIrJTqMcbnmWNOrw+so4OylkOmc0L7psGKk/IICcMBER7RbLuXG7uDM6JxQmiMFEUS5VJEodo5YnH3juhBBfskOMNMywGi8FgEc+jWpfKyRpwboYmuw11YTGMuGd69gLVnk8/3bNnz3iEnF1f5pWEMHHuUW3VhtVR1gx8IE1MiiCspbTiyXXx4MEdO2pq/ooCAhWjarkgXGU68IGcYVYIQqgURJALj+X0QQ66hXytkKE1ekUtDg1rOO+/k5hD+EBm9FhKMhxMCCRn3wxahyeY8golr88N8fb4eLtjmUgZxFRHlMTQMoxRK5NmeL4VrCqOXwlp+jPaPKwKJRjFqnmecXVgdHYhICozJAX16zRdVlTWg0iWA0lVHX5ydbL6JSAEhIAQEAJCQJBBwtNLhwU1nZsXjGJ1onB42PQkbO2yxZZBm41xuWwapBGPV7FIDQPtjM1m49081YvticSlaEo0eTTY+ZA9DbLbX27rQWoYyB1K0QSnmzgNXh9JcdmBalVfzQN3QCwPI3+tIAgJbDpeZy8wU5AVbca7sM98IA0DzYXDh+kB1hrejvmLng4G+Mq5fuyp17fcdfH1RoRUdwh6brxQbHRjXsYnGoCTOrt33EDDgDx1YGAgFti/TWMdAl6QZAasmPbW10dN23zHzpNgOQgAiQ0fmjdvKEp6/EU1nYUXZLK2B3bWJzzV7c7ybJVmk2k8TdOsS3IqQrvVGI0XJO0r/rOaNxsgv2i5q8cVI5lFxUsVGzYo9JLurjJbuoAXJIWCt7kpGyF11Fq7I74KqZusLm8OZpCA2JtywMAlpYAZhKx+CQgBISAEhIAQEAKCVz4TYAAhCPy6OiT+/QAAAABJRU5ErkJggg==;" vertex="1" parent="7">
                    <mxGeometry x="540" y="60" width="200" height="160" as="geometry"/>
                </mxCell>
            </root>
        </mxGraphModel>
    </diagram>
</mxfile>